<svg width="940" height="211" viewBox="0 0 940 211" fill="none" xmlns="http://www.w3.org/2000/svg">
<path d="M516.032 210.6C508.037 210.6 500.724 208.65 494.094 204.75C487.659 200.85 482.492 195.682 478.592 189.247C474.692 182.617 472.742 175.305 472.742 167.31V43.29C472.742 35.295 474.692 28.08 478.592 21.645C482.492 15.015 487.659 9.75 494.094 5.84999C500.724 1.95 508.037 0 516.032 0H682.757V45.63H527.732C524.612 45.63 522.174 46.41 520.419 47.97C518.859 49.53 518.079 51.9675 518.079 55.2825V155.317C518.079 158.437 518.859 160.875 520.419 162.63C522.174 164.19 524.612 164.97 527.732 164.97H682.757V210.6H516.032ZM105.445 141.425L163.507 210.6H210.307V195.097L164.73 141.283L167.017 141.277C175.012 141.277 182.227 139.327 188.662 135.427C195.292 131.527 200.557 126.262 204.457 119.632C208.552 113.002 210.6 105.787 210.6 97.9875V43.5825C210.6 35.7825 208.552 28.5675 204.457 21.9375C200.557 15.3075 195.292 10.0425 188.662 6.14249C182.227 2.24249 175.012 0.292496 167.017 0.292496H0V210.6H45.3375V141.57L105.445 141.425ZM164.677 95.6475H45.3375V45.63H164.677V95.6475ZM241.37 0.292496V210.6H286.707V141.57L408.387 141.277C416.382 141.277 423.597 139.327 430.032 135.427C436.662 131.527 441.927 126.262 445.827 119.632C449.922 113.002 451.97 105.787 451.97 97.9875V43.5825C451.97 35.7825 449.922 28.5675 445.827 21.9375C441.927 15.3075 436.662 10.0425 430.032 6.14249C423.597 2.24249 416.382 0.292496 408.387 0.292496H241.37ZM406.047 95.6475H286.707V45.63H406.047V95.6475Z" fill="url(#paint0_linear_18_371)"/>
<path d="M516.032 210.6C508.037 210.6 500.724 208.65 494.094 204.75C487.659 200.85 482.492 195.682 478.592 189.247C474.692 182.617 472.742 175.305 472.742 167.31V43.29C472.742 35.295 474.692 28.08 478.592 21.645C482.492 15.015 487.659 9.75 494.094 5.84999C500.724 1.95 508.037 0 516.032 0H682.757V45.63H527.732C524.612 45.63 522.174 46.41 520.419 47.97C518.859 49.53 518.079 51.9675 518.079 55.2825V155.317C518.079 158.437 518.859 160.875 520.419 162.63C522.174 164.19 524.612 164.97 527.732 164.97H682.757V210.6H516.032ZM105.445 141.425L163.507 210.6H210.307V195.097L164.73 141.283L167.017 141.277C175.012 141.277 182.227 139.327 188.662 135.427C195.292 131.527 200.557 126.262 204.457 119.632C208.552 113.002 210.6 105.787 210.6 97.9875V43.5825C210.6 35.7825 208.552 28.5675 204.457 21.9375C200.557 15.3075 195.292 10.0425 188.662 6.14249C182.227 2.24249 175.012 0.292496 167.017 0.292496H0V210.6H45.3375V141.57L105.445 141.425ZM164.677 95.6475H45.3375V45.63H164.677V95.6475ZM241.37 0.292496V210.6H286.707V141.57L408.387 141.277C416.382 141.277 423.597 139.327 430.032 135.427C436.662 131.527 441.927 126.262 445.827 119.632C449.922 113.002 451.97 105.787 451.97 97.9875V43.5825C451.97 35.7825 449.922 28.5675 445.827 21.9375C441.927 15.3075 436.662 10.0425 430.032 6.14249C423.597 2.24249 416.382 0.292496 408.387 0.292496H241.37ZM406.047 95.6475H286.707V45.63H406.047V95.6475Z" stroke="#1C1E2E"/>
<path d="M682.549 210.6V97.9875H699.953V125.775H749.239C752.749 125.775 755.966 126.701 758.891 128.554C761.914 130.309 764.303 132.649 766.058 135.574C767.813 138.499 768.69 141.765 768.69 145.373V191.003C768.69 194.61 767.813 197.876 766.058 200.801C764.303 203.726 761.914 206.115 758.891 207.968C755.966 209.723 752.749 210.6 749.239 210.6H682.549ZM702.731 193.196H748.654C749.336 193.196 749.921 192.953 750.409 192.465C750.994 191.88 751.286 191.198 751.286 190.418V145.958C751.286 145.178 750.994 144.544 750.409 144.056C749.921 143.471 749.336 143.179 748.654 143.179H702.731C702.049 143.179 701.415 143.471 700.83 144.056C700.245 144.544 699.953 145.178 699.953 145.958V190.418C699.953 191.198 700.245 191.88 700.83 192.465C701.415 192.953 702.049 193.196 702.731 193.196Z" fill="#FDFEFF"/>
<path d="M802.911 210.6C799.304 210.6 796.038 209.723 793.113 207.968C790.188 206.115 787.799 203.726 785.946 200.801C784.191 197.876 783.314 194.61 783.314 191.003V145.373C783.314 141.765 784.191 138.499 785.946 135.574C787.799 132.649 790.188 130.309 793.113 128.554C796.038 126.701 799.304 125.775 802.911 125.775H849.858C853.563 125.775 856.878 126.701 859.803 128.554C862.728 130.309 865.068 132.649 866.823 135.574C868.578 138.499 869.455 141.765 869.455 145.373V176.963H800.718V190.418C800.718 191.198 800.961 191.88 801.449 192.465C802.034 192.953 802.716 193.196 803.496 193.196H869.455V210.6H802.911ZM800.718 161.021H852.051V145.958C852.051 145.178 851.759 144.544 851.174 144.056C850.686 143.471 850.053 143.179 849.273 143.179H803.496C802.716 143.179 802.034 143.471 801.449 144.056C800.961 144.544 800.718 145.178 800.718 145.958V161.021Z" fill="#FDFEFF"/>
<path d="M908.121 210.6C904.514 210.6 901.199 209.723 898.176 207.968C895.251 206.115 892.911 203.726 891.156 200.801C889.401 197.876 888.524 194.61 888.524 191.003V99.3038H905.927V125.775H939.857V143.179H905.927V190.418C905.927 191.198 906.171 191.88 906.659 192.465C907.244 192.953 907.926 193.196 908.706 193.196H939.857V210.6H908.121Z" fill="#FDFEFF"/>
<defs>
<linearGradient id="paint0_linear_18_371" x1="341.378" y1="0" x2="341.378" y2="210.6" gradientUnits="userSpaceOnUse">
<stop offset="0.125" stop-color="#74D338"/>
<stop offset="1" stop-color="#CDDFC1"/>
</linearGradient>
</defs>
</svg>
